<svg width="25" height="25" viewBox="0 0 25 25" fill="none" xmlns="http://www.w3.org/2000/svg">
<path fill-rule="evenodd" clip-rule="evenodd" d="M7.8125 0H17.1875C21.5016 0 25 3.49844 25 7.8125V17.1875C25 21.5016 21.5016 25 17.1875 25H7.8125C3.49844 25 0 21.5016 0 17.1875V7.8125C0 3.49844 3.49844 0 7.8125 0ZM17.1874 22.6561C20.203 22.6561 22.6561 20.203 22.6561 17.1873V7.81235C22.6561 4.79672 20.203 2.3436 17.1874 2.3436H7.81238C4.79675 2.3436 2.34363 4.79672 2.34363 7.81235V17.1873C2.34363 20.203 4.79675 22.6561 7.81238 22.6561H17.1874Z" fill="white"/>
<path fill-rule="evenodd" clip-rule="evenodd" d="M6.24994 12.4999C6.24994 9.04832 9.04838 6.24988 12.4999 6.24988C15.9515 6.24988 18.7499 9.04832 18.7499 12.4999C18.7499 15.9514 15.9515 18.7499 12.4999 18.7499C9.04838 18.7499 6.24994 15.9514 6.24994 12.4999ZM8.59375 12.5C8.59375 14.6531 10.3469 16.4062 12.5 16.4062C14.6531 16.4062 16.4063 14.6531 16.4063 12.5C16.4063 10.3453 14.6531 8.59375 12.5 8.59375C10.3469 8.59375 8.59375 10.3453 8.59375 12.5Z" fill="white"/>
<circle cx="19.5312" cy="5.46863" r="0.78125" fill="white"/>
</svg>
