<svg width="25" height="19" viewBox="0 0 25 19" fill="none" xmlns="http://www.w3.org/2000/svg">
<path d="M25 2.24931C24.0703 2.63077 23.0797 2.88362 22.0469 3.00638C23.1094 2.413 23.9203 1.48054 24.3016 0.356615C23.3109 0.909077 22.2172 1.29931 21.0516 1.51708C20.1109 0.580231 18.7703 0 17.3078 0C14.4703 0 12.1859 2.15431 12.1859 4.79531C12.1859 5.17531 12.2203 5.54069 12.3047 5.88854C8.04375 5.69415 4.27344 3.78392 1.74063 0.874C1.29844 1.59162 1.03906 2.413 1.03906 3.29723C1.03906 4.95754 1.95312 6.42931 3.31562 7.28138C2.49219 7.26677 1.68438 7.04315 1 6.69092C1 6.70554 1 6.72454 1 6.74354C1 9.07323 2.77656 11.0083 5.10625 11.4541C4.68906 11.5608 4.23438 11.6119 3.7625 11.6119C3.43438 11.6119 3.10313 11.5944 2.79219 11.5301C3.45625 13.4286 5.34062 14.8244 7.58125 14.8697C5.8375 16.1456 3.62344 16.9144 1.22656 16.9144C0.80625 16.9144 0.403125 16.8968 0 16.8486C2.27031 18.2181 4.96094 19 7.8625 19C17.2938 19 22.45 11.6923 22.45 5.358C22.45 5.14608 22.4422 4.94146 22.4313 4.73831C23.4484 4.06308 24.3031 3.21977 25 2.24931Z" fill="white"/>
</svg>
